<svg version="1.1" viewBox="0.0 0.0 960.0 720.0" fill="none" stroke="none" stroke-linecap="square" stroke-miterlimit="10" xmlns:xlink="http://www.w3.org/1999/xlink" xmlns="http://www.w3.org/2000/svg"><clipPath id="p.0"><path d="m0 0l960.0 0l0 720.0l-960.0 0l0 -720.0z" clip-rule="nonzero"/></clipPath><g clip-path="url(#p.0)"><path fill="#000000" fill-opacity="0.0" d="m0 0l960.0 0l0 720.0l-960.0 0z" fill-rule="evenodd"/><path fill="#000000" fill-opacity="0.0" d="m0 0l960.0 0l0 720.0l-960.0 0z" fill-rule="evenodd"/><path fill="#000000" d="m417.33136 391.05313q2.9375 0 4.640625 2.71875q1.703125 2.71875 1.703125 7.484375q0 8.84375 -4.3125 14.046875q-22.4375 27.4375 -47.8125 27.4375q-21.984375 0 -35.140625 -17.0q-13.140625 -17.0 -13.140625 -48.734375q0 -7.703125 0.671875 -15.421875q-14.953125 2.71875 -32.625 4.078125q-11.796875 0.921875 -16.09375 1.140625q-4.546875 23.125 -12.703125 56.671875q-4.75 19.71875 -18.125 19.71875q-14.515625 0 -14.515625 -13.15625q0 -2.9375 1.140625 -8.15625q7.703125 -31.046875 12.234375 -52.578125l-10.875 0.453125q-7.484375 0 -10.890625 -2.609375q-3.390625 -2.609375 -3.390625 -8.5q0 -7.484375 4.296875 -11.0q4.3125 -3.515625 14.296875 -3.96875l12.0 -0.453125q5.90625 -31.953125 5.90625 -48.71875q0 -10.65625 -3.1875 -14.5q-3.171875 -3.859375 -8.375 -3.859375q-15.875 0 -35.8125 26.515625q-2.953125 3.84375 -6.578125 3.84375q-3.171875 0 -5.4375 -2.9375q-2.265625 -2.953125 -2.265625 -7.484375q0 -7.03125 5.671875 -14.953125q9.96875 -13.828125 25.15625 -22.78125q15.1875 -8.953125 30.828125 -8.953125q14.71875 0 22.765625 10.09375q8.046875 10.078125 8.046875 31.390625q0 18.8125 -5.4375 50.984375l22.21875 -1.125q14.28125 -0.6875 24.46875 -2.265625q4.09375 -24.9375 12.46875 -46.6875q8.390625 -21.765625 20.859375 -35.359375q12.46875 -13.609375 27.875 -13.609375q11.328125 0 17.90625 8.953125q6.578125 8.953125 6.578125 23.46875q0 56.203125 -57.34375 77.96875q-0.6875 9.0625 -0.6875 18.8125q0 23.796875 5.890625 33.765625q5.890625 9.96875 16.546875 9.96875q9.296875 0 17.0 -4.859375q7.703125 -4.875 17.453125 -16.671875q2.71875 -3.171875 6.125 -3.171875zm-30.59375 -128.51562q-5.0 0 -10.546875 9.078125q-5.546875 9.0625 -10.546875 24.703125q-4.984375 15.640625 -7.921875 34.21875q18.125 -7.484375 26.734375 -21.296875q8.625 -13.828125 8.625 -35.59375q0 -5.21875 -1.8125 -8.15625q-1.8125 -2.953125 -4.53125 -2.953125zm149.1344 128.51562q2.953125 0 4.640625 2.71875q1.703125 2.71875 1.703125 7.484375q0 9.0625 -4.296875 14.046875q-8.390625 10.203125 -23.703125 18.828125q-15.296875 8.609375 -32.734375 8.609375q-23.8125 0 -36.953125 -12.921875q-13.140625 -12.921875 -13.140625 -35.359375q0 -15.640625 6.5625 -29.125q6.578125 -13.484375 18.25 -21.421875q11.671875 -7.9375 26.40625 -7.9375q13.140625 0 21.078125 7.828125q7.9375 7.8125 7.9375 21.1875q0 15.640625 -11.21875 26.859375q-11.21875 11.21875 -37.96875 17.796875q5.671875 10.421875 21.53125 10.421875q10.203125 0 23.234375 -7.140625q13.03125 -7.140625 22.546875 -18.703125q2.71875 -3.171875 6.125 -3.171875zm-57.125 -32.859375q-8.375 0 -14.15625 9.75q-5.78125 9.734375 -5.78125 23.5625l0 0.453125q13.375 -3.171875 21.078125 -9.515625q7.703125 -6.34375 7.703125 -14.734375q0 -4.3125 -2.375 -6.90625q-2.375 -2.609375 -6.46875 -2.609375zm131.01337 32.859375q2.953125 0 4.640625 2.71875q1.703125 2.71875 1.703125 7.484375q0 9.0625 -4.296875 14.046875q-9.75 12.015625 -21.203125 19.734375q-11.4375 7.703125 -25.953125 7.703125q-19.9375 0 -29.578125 -18.125q-9.625 -18.140625 -9.625 -46.9375q0 -27.640625 7.140625 -63.0q7.140625 -35.359375 21.078125 -60.75q13.9375 -25.390625 33.203125 -25.390625q10.875 0 17.109375 10.09375q6.234375 10.078125 6.234375 28.890625q0 26.984375 -14.96875 62.5625q-14.953125 35.578125 -40.5625 70.484375q1.59375 9.296875 5.21875 13.265625q3.625 3.96875 9.515625 3.96875q9.296875 0 16.3125 -5.328125q7.03125 -5.328125 17.90625 -18.25q2.71875 -3.171875 6.125 -3.171875zm-27.875 -140.07812q-5.21875 0 -11.796875 18.8125q-6.5625 18.8125 -11.546875 46.703125q-4.984375 27.875 -5.4375 53.484375q16.078125 -26.515625 25.59375 -53.140625q9.53125 -26.640625 9.53125 -48.625q0 -17.234375 -6.34375 -17.234375zm101.76495 140.07812q2.953125 0 4.640625 2.71875q1.703125 2.71875 1.703125 7.484375q0 9.0625 -4.296875 14.046875q-9.75 12.015625 -21.203125 19.734375q-11.4375 7.703125 -25.953125 7.703125q-19.9375 0 -29.578125 -18.125q-9.625 -18.140625 -9.625 -46.9375q0 -27.640625 7.140625 -63.0q7.140625 -35.359375 21.078125 -60.75q13.9375 -25.390625 33.203125 -25.390625q10.875 0 17.109375 10.09375q6.234375 10.078125 6.234375 28.890625q0 26.984375 -14.96875 62.5625q-14.953125 35.578125 -40.5625 70.484375q1.59375 9.296875 5.21875 13.265625q3.625 3.96875 9.515625 3.96875q9.296875 0 16.3125 -5.328125q7.03125 -5.328125 17.90625 -18.25q2.71875 -3.171875 6.125 -3.171875zm-27.875 -140.07812q-5.21875 0 -11.796875 18.8125q-6.5625 18.8125 -11.546875 46.703125q-4.984375 27.875 -5.4375 53.484375q16.078125 -26.515625 25.59375 -53.140625q9.53125 -26.640625 9.53125 -48.625q0 -17.234375 -6.34375 -17.234375zm54.171204 191.76562q-13.375 0 -22.78125 -6.6875q-9.40625 -6.6875 -14.171875 -17.5625q-4.75 -10.890625 -4.75 -23.359375q0 -17.21875 6.453125 -30.703125q6.46875 -13.484375 17.5625 -21.078125q11.109375 -7.59375 24.9375 -7.59375q13.375 0 22.890625 6.6875q9.515625 6.6875 14.28125 17.5625q4.765625 10.875 4.765625 23.34375q0 17.21875 -6.578125 30.71875q-6.578125 13.484375 -17.796875 21.078125q-11.21875 7.59375 -24.8125 7.59375zm2.484375 -24.484375q7.71875 0 13.03125 -8.390625q5.328125 -8.390625 5.328125 -24.46875q0 -12.46875 -4.53125 -18.8125q-4.53125 -6.359375 -10.875 -6.359375q-8.15625 0 -13.484375 8.28125q-5.328125 8.265625 -5.328125 24.59375q0 12.921875 4.53125 19.046875q4.53125 6.109375 11.328125 6.109375z" fill-rule="nonzero"/></g></svg>